HIERARCHY
ROOT pelvis
{
  OFFSET 0 100 0
  CHANNELS 6 Xposition Yposition Zposition Zrotation Xrotation Yrotation
  JOINT pelvis_right_femur
  {
    OFFSET -10.78128 -3.44521 -0.5502486
    CHANNELS 3 Zrotation Xrotation Yrotation
    JOINT right_femur_tibia
    {
      OFFSET -0.8047443 -44.0398 -0.1307829
      CHANNELS 3 Zrotation Xrotation Yrotation
      JOINT right_tibia_foot
      {
        OFFSET 3.006224 -47.83518 -5
        CHANNELS 3 Zrotation Xrotation Yrotation
        End Site
        {
          OFFSET 0 -5 15
        }
      }
    }
  }
  JOINT pelvis_left_femur
  {
    OFFSET 10.78128 -3.44521 -0.5502486
    CHANNELS 3 Zrotation Xrotation Yrotation
    JOINT left_femur_tibia
    {
      OFFSET 0.8047443 -44.0398 -0.1307829
      CHANNELS 3 Zrotation Xrotation Yrotation
      JOINT left_tibia_foot
      {
        OFFSET -4.370144 -48.10324 -4.275266
        CHANNELS 3 Zrotation Xrotation Yrotation
        End Site
        {
          OFFSET 0 -5 15
        }
      }
    }
  }
  JOINT pelvis_spine1
  {
    OFFSET 0 6.468898 -3.129235
    CHANNELS 3 Zrotation Xrotation Yrotation
    JOINT spine1
    {
      OFFSET 0 23.15396 4.99043
      CHANNELS 3 Zrotation Xrotation Yrotation
      JOINT spine2
      {
        OFFSET 0 20.79997 -5.064912
        CHANNELS 3 Zrotation Xrotation Yrotation
        JOINT neck
        {
          OFFSET 0 14.38658 9.616178
          CHANNELS 3 Zrotation Xrotation Yrotation
          End Site
          {
            OFFSET 0 20 0
          }
        }
      }
      JOINT right_manubrium
      {
        OFFSET -5.722621 16.35077 3.967754
        CHANNELS 3 Zrotation Xrotation Yrotation
        JOINT right_clavicle
        {
          OFFSET -13.16364 1.694482 -4.693211
          CHANNELS 3 Zrotation Xrotation Yrotation
          JOINT right_humerus
          {
            OFFSET -28.5034 -0.3100689 -2.792744
            CHANNELS 3 Zrotation Xrotation Yrotation
            JOINT right_radius
            {
              OFFSET -25.15693 0.02248979 -1.271978
              CHANNELS 3 Zrotation Xrotation Yrotation
              End Site
              {
                OFFSET -15 0 0
              }
            }
          }
        }
      }
      JOINT left_manubrium
      {
        OFFSET 5.722621 16.35077 3.967754
        CHANNELS 3 Zrotation Xrotation Yrotation
        JOINT left_clavicle
        {
          OFFSET 13.16364 1.694482 -4.693211
          CHANNELS 3 Zrotation Xrotation Yrotation
          JOINT left_humerus
          {
            OFFSET 29.39168 -1.063119 -2.237045
            CHANNELS 3 Zrotation Xrotation Yrotation
            JOINT left_radius
            {
              OFFSET 24.59957 -0.9528479 0.9047498
              CHANNELS 3 Zrotation Xrotation Yrotation
              End Site
              {
                OFFSET 15 -0 -0
              }
            }
          }
        }
      }
    }
  }
}
MOTION
Frames: 15
Frame Time: 0.0416666666667
0 103.5113 0 2.327158 -2.875239 0.234521 1.104388 -11.26389 6.52519 -0 37.29977 -0 -5.585537 -16.46903 -5.144734 -7.147382 13.08934 -23.23951 -0 4.216488 -0 -0.5872827 -21.03421 22.4176 -4.745491 -3.584399 3.612326 1.856984 7.593148 -7.706232 0.6866412 24.20894 6.993673 3.473716 -21.44754 7.649086 6.389216 -18.57117 10.9326 86.85476 35.82315 -21.84143 -0 0 14.59313 -9.207039 8.25179 5.252441 3.880881 -18.85372 -3.632695 -98.47472 41.40247 26.29311 0 0 -20.91167 -12.17719 16.88258 27.93903
0.1077072 104.0543 1.48961 1.941057 -2.493284 0.339794 1.651453 -12.92876 6.600292 -0 37.13933 -0 -5.606749 -15.74572 -5.062394 -6.897639 13.20896 -23.05466 -0 4.590645 -0 -0.6728478 -21.08374 22.06477 -4.429318 -3.309078 3.486865 1.971761 7.622869 -7.803718 0.6899215 23.92295 7.151288 3.53102 -21.83449 7.830407 6.410001 -18.53663 10.98061 86.80934 35.82305 -21.78084 -0 0 14.6691 -9.16652 8.411421 5.327225 3.988906 -18.89921 -3.519083 -98.19563 40.75355 26.06902 0 0 -20.7659 -11.41549 16.7384 27.20707
0.2868 104.7239 3.292102 1.218256 -1.441004 0.5650432 2.459117 -16.36697 6.270679 -0 37.14504 -0 -5.477576 -12.71996 -4.527276 -6.542581 12.56683 -21.89623 -0 5.278636 -0 -1.199653 -21.07619 20.51788 -3.834606 -2.724984 3.354868 2.141682 8.010521 -8.176137 0.4156207 23.03968 7.816689 3.882312 -22.81738 8.041566 6.746035 -18.63476 11.30679 86.82306 36.60332 -21.97781 -0 0 14.76908 -10.3485 9.601171 6.239629 4.123992 -19.41385 -3.529154 -97.18083 39.12577 25.74443 0 0 -21.41812 -10.11338 15.83572 26.22735
0.4774174 105.378 5.383622 0.5783654 -0.7817496 0.8779769 3.307482 -19.41076 6.090885 -0 35.81281 -0 -5.463442 -11.01285 -4.403837 -6.072918 12.79964 -21.16917 -0 6.160696 -0 -2.047938 -21.41536 19.27832 -3.288079 -2.160979 3.098827 2.311662 7.994013 -8.380432 0.3953286 22.54315 8.119824 4.033349 -23.35754 8.262135 6.706708 -18.44929 11.35287 86.88699 36.54189 -22.0911 -0 0 14.68815 -10.72144 10.09383 6.559074 4.320364 -19.62923 -3.448161 -96.55348 38.33882 25.17995 0 0 -21.74927 -9.450631 15.30759 25.73207
0.6401829 105.9711 7.797849 -0.05030527 -0.2520679 1.212123 4.2325 -22.39906 5.920526 -0 33.23843 -0 -5.573803 -9.778591 -4.462718 -5.512459 13.58677 -20.64803 -0 7.466486 -0 -3.350209 -22.01144 17.99952 -2.735933 -1.588592 2.750724 2.495882 7.714726 -8.509913 0.5054245 22.23883 8.254295 4.124508 -23.71512 8.467469 6.45545 -18.05908 11.23412 87.03501 36.05082 -22.27328 -0 0 14.41079 -10.67169 10.22667 6.551886 4.563271 -19.71788 -3.32303 -96.2108 38.15737 24.53881 0 0 -22.00165 -9.350483 14.97151 25.76287
0.7354672 106.4816 10.53557 -0.6204837 0.1115545 1.497605 5.194368 -24.92928 5.828927 -0 29.75414 -0 -5.901242 -9.096583 -4.636166 -4.921248 14.84663 -20.51994 -0 9.300625 -0 -4.869997 -22.71582 16.94172 -2.22202 -1.091982 2.349868 2.684303 7.201985 -8.518052 0.7574346 22.1707 8.190751 4.160736 -23.91791 8.654211 6.015508 -17.50919 10.96353 87.23342 35.16029 -22.44439 -0 0 13.94964 -10.06479 9.863343 6.146422 4.838468 -19.63 -3.125781 -96.28913 38.51098 23.97155 0 0 -21.91467 -9.645052 14.98585 26.09102
0.7365676 106.9252 13.60018 -1.134811 0.2991937 1.673083 6.181268 -26.856 5.830066 -0 25.91237 -0 -6.434379 -8.77693 -4.853808 -4.324344 16.36531 -20.75848 -0 11.74791 -0 -6.458119 -23.38646 16.16378 -1.739763 -0.6744752 1.930037 2.861473 6.53679 -8.387292 1.137593 22.30473 7.953518 4.154216 -24.00482 8.832299 5.430568 -16.85518 10.58634 87.43831 33.91094 -22.50244 -0 0 13.36802 -9.006375 9.037203 5.426854 5.121775 -19.35573 -2.86117 -96.76526 39.17231 23.55586 0 0 -21.34656 -10.11014 15.32986 26.48087
0.6586196 107.3418 16.99381 -1.577582 0.4767902 1.742754 7.065234 -28.38473 5.863849 -0 22.50712 -0 -6.96553 -8.349155 -4.957208 -3.830837 17.59486 -20.99676 -0 14.31573 -0 -7.653551 -23.82807 15.61511 -1.330695 -0.3339737 1.597155 3.019376 5.976873 -8.221866 1.508984 22.41853 7.712449 4.154468 -24.13153 9.009017 4.892549 -16.26718 10.25989 87.60787 32.77071 -22.44993 -0 0 12.7978 -8.029386 8.209967 4.774763 5.398473 -19.0897 -2.574568 -97.10934 39.44835 23.10307 0 0 -20.63262 -10.09603 15.73986 26.29624
0.6237401 107.7428 20.81209 -1.962669 1.605115 1.937493 7.421359 -31.25882 5.332561 -0 19.40391 -0 -7.112099 -5.82081 -4.304594 -3.725443 17.25324 -19.84258 -0 15.23291 -0 -7.543668 -23.85826 14.53766 -1.122684 -0.03029062 1.580693 3.218786 6.212905 -8.531068 1.342815 21.70232 8.151536 4.485175 -25.01078 9.139364 4.989272 -16.14347 10.44121 87.85405 33.62262 -22.86545 -0 0 12.20269 -8.945235 9.06602 5.436174 5.801921 -19.80194 -2.421714 -95.41338 37.40372 21.64944 0 0 -21.73813 -7.878661 15.30927 23.91069
0.8245879 107.7184 25.49137 -1.826366 4.093866 2.687262 5.358735 -36.72357 2.021004 -0 13.4437 -0 -6.439506 0.88519 -2.644771 -4.286606 14.61438 -14.92929 -0 11.59982 -0 -5.541325 -23.79498 11.65421 -1.633292 0.2668493 2.023274 3.36833 7.805505 -9.772796 0.2255425 19.65628 9.649722 5.262854 -26.41546 8.930033 5.755724 -16.39093 11.34473 89.03501 37.66451 -24.70775 -0 0 10.52841 -14.84957 13.22793 9.264728 6.735243 -22.86508 -2.781577 -88.77516 30.45378 16.5142 0 0 -27.97303 -1.676653 12.59726 17.2171
1.048582 106.2489 31.37168 0.159392 3.574472 3.621223 -0.1843842 -37.14618 -3.77938 -0 2.105073 -0 -4.595568 3.393904 -3.518043 -5.309405 15.63955 -8.912557 -0 5.537268 -0 -3.57959 -24.16262 9.69162 -3.373173 -0.1323381 2.142858 2.894794 8.588163 -10.38967 -0.1619377 19.45916 9.439046 4.641783 -23.90978 8.090618 4.444798 -14.93326 11.0544 91.77302 37.84002 -26.816 -0 0 6.202969 -21.64995 15.88829 12.69192 8.075344 -25.85564 -3.570246 -80.33312 22.55963 5.997417 0 0 -35.74714 4.353304 9.633585 9.048466
1.187289 104.4357 38.02176 1.036391 2.117355 4.382025 -1.282908 -33.59091 -4.038316 0 -3.217859 0 -4.195553 0.2964981 -5.361756 -5.512986 20.05359 -8.163436 -0 5.876613 -0 -3.665969 -22.31294 10.29477 -3.72212 -1.232174 1.628008 2.65016 8.03833 -10.19572 0.3313105 20.4231 8.24278 3.661838 -21.56652 7.792383 3.124651 -13.28944 10.19435 93.32505 35.58556 -27.72137 -0 0 3.300455 -21.55906 15.2983 11.90071 8.412389 -25.88393 -3.598966 -78.03383 20.88138 0.7875913 0 0 -36.60386 5.944061 9.451286 6.198418
1.311993 103.2648 45.01932 0.4261488 1.359 4.832635 0.5589556 -31.08275 -1.395929 0 -0.02808231 0 -4.254138 -1.382723 -6.281235 -4.810468 21.90442 -9.215088 -0 11.02103 -0 -4.751019 -19.07859 10.87479 -2.755132 -1.738202 1.308392 2.694608 7.965463 -9.946468 0.6829831 20.60303 7.76211 3.281875 -21.15658 7.951424 3.217913 -12.85113 10.02987 93.22984 34.39671 -27.47823 -0 0 3.181413 -19.93138 14.90031 10.84073 7.878667 -24.81012 -3.393599 -78.91638 21.5901 1.372274 0 0 -33.84969 5.665509 9.495494 6.76113
1.418776 103.2095 52.16144 -0.9811794 0.7462301 4.843278 3.846638 -28.35177 2.151077 -0 7.571906 -0 -4.742154 -1.961423 -6.26277 -3.653944 21.63461 -10.77165 -0 21.48325 -0 -6.92076 -14.55023 10.93213 -0.9657726 -1.753087 1.23137 2.857924 8.193675 -9.465491 0.9451023 20.51341 7.614272 3.249381 -21.68621 8.194282 4.031107 -12.97358 10.33723 92.15295 33.43489 -26.40792 -0 0 4.245237 -17.57133 14.43496 9.654435 6.776121 -23.17893 -3.101393 -81.56313 23.2719 5.109558 0 0 -29.51127 4.582766 9.667317 8.865338
1.559867 104.2397 59.25402 -1.969869 0.05121008 4.504004 6.405181 -25.05316 4.553704 -0 14.41673 -0 -5.013548 -1.495877 -5.60358 -2.945767 18.49214 -11.32037 -0 34.29606 -0 -8.966593 -10.59893 10.72577 0.4075158 -1.273898 1.722225 2.920377 8.753539 -8.873257 1.046699 20.42082 7.645873 3.487617 -22.28025 8.191339 5.087618 -13.39632 10.97521 90.74649 33.07695 -25.10129 -0 0 5.577727 -16.23861 14.41998 9.035951 5.620001 -21.92711 -2.985835 -84.39818 24.62668 9.490232 0 0 -26.13887 3.170271 9.620165 11.34187
